<?xml version="1.0" encoding="UTF-8" standalone="no"?>
<!-- Created with Inkscape (http://www.inkscape.org/) -->

<svg
   xmlns:dc="http://purl.org/dc/elements/1.1/"
   xmlns:cc="http://creativecommons.org/ns#"
   xmlns:rdf="http://www.w3.org/1999/02/22-rdf-syntax-ns#"
   xmlns:svg="http://www.w3.org/2000/svg"
   xmlns="http://www.w3.org/2000/svg"
   xmlns:sodipodi="http://sodipodi.sourceforge.net/DTD/sodipodi-0.dtd"
   xmlns:inkscape="http://www.inkscape.org/namespaces/inkscape"
   width="72.248886mm"
   height="72.248886mm"
   viewBox="0 0 255.99999 255.99999"
   id="svg2"
   version="1.1"
   inkscape:version="0.91 r13725"
   sodipodi:docname="favicon.svg">
  <defs
     id="defs4" />
  <sodipodi:namedview
     id="base"
     pagecolor="#ffffff"
     bordercolor="#666666"
     borderopacity="1.0"
     inkscape:pageopacity="0.0"
     inkscape:pageshadow="2"
     inkscape:zoom="1.4"
     inkscape:cx="-8.9437208"
     inkscape:cy="156.15765"
     inkscape:document-units="px"
     inkscape:current-layer="layer1"
     showgrid="false"
     inkscape:window-width="1920"
     inkscape:window-height="1005"
     inkscape:window-x="0"
     inkscape:window-y="0"
     inkscape:window-maximized="1"
     fit-margin-top="0"
     fit-margin-left="0"
     fit-margin-right="0"
     fit-margin-bottom="0" />
  <metadata
     id="metadata7">
    <rdf:RDF>
      <cc:Work
         rdf:about="">
        <dc:format>image/svg+xml</dc:format>
        <dc:type
           rdf:resource="http://purl.org/dc/dcmitype/StillImage" />
        <dc:title></dc:title>
      </cc:Work>
    </rdf:RDF>
  </metadata>
  <g
     inkscape:label="Layer 1"
     inkscape:groupmode="layer"
     id="layer1"
     transform="translate(-244.04727,-398.18112)">
    <rect
       style="color:#000000;clip-rule:nonzero;display:inline;overflow:visible;visibility:visible;opacity:1;isolation:auto;mix-blend-mode:normal;color-interpolation:sRGB;color-interpolation-filters:linearRGB;solid-color:#000000;solid-opacity:1;fill:#40b4ba;fill-opacity:1;fill-rule:nonzero;stroke:#40b4ba;stroke-width:25.69953728;stroke-linecap:butt;stroke-linejoin:miter;stroke-miterlimit:4;stroke-dasharray:none;stroke-dashoffset:0;stroke-opacity:1;color-rendering:auto;image-rendering:auto;shape-rendering:auto;text-rendering:auto;enable-background:accumulate"
       id="rect4160"
       width="230.30046"
       height="230.30046"
       x="256.89703"
       y="411.03088" />
    <path
       style="fill:#ffffff;stroke:#ffffff"
       d="m 309.90134,585.6616 -0.72553,-35.58506 -0.72559,-35.58506 4.54295,-4.25802 c 2.49857,-2.34192 11.51876,-10.12935 20.04483,-17.30543 8.52607,-7.17608 20.2555,-17.11486 26.06549,-22.08622 13.34112,-11.41549 13.56947,-11.44948 22.67397,-3.37761 3.52465,3.12489 6.97104,6.21736 7.65879,6.87218 0.68775,0.65497 7.50599,6.5817 15.15181,13.17094 7.64582,6.58932 17.50007,15.16086 21.89827,19.04806 l 7.99683,7.06753 0.53167,11.32812 c 0.90327,19.23727 0.81376,59.68535 -0.13613,61.45997 -2.24656,4.19772 -1.71204,4.16222 -62.63172,4.16222 l -56.84789,0 c -2.43115,-0.28436 -4.70851,-1.49431 -5.49775,-4.91162 z m 120.2179,2.24685 c 4.38316,-2.33444 4.41473,-2.78644 3.38538,-48.45667 l -0.55448,-24.60374 -24.01819,-20.85175 c -13.21006,-11.46844 -26.48712,-23.02982 -29.50468,-25.69196 -3.01749,-2.66207 -6.1473,-4.84015 -6.95507,-4.84015 -1.24623,0 -18.87395,14.54217 -54.35032,44.83688 l -7.77325,6.63785 0.43475,26.24188 c 0.6457,38.94058 1.2078,43.32146 2.34406,45.09416 0.70842,1.09228 1.46915,2.14522 3.01043,2.61282 l 56.07127,0 c 41.01453,0 56.56495,-0.26299 57.90988,-0.97932 z M 317.6128,558.02625 c -0.30575,-13.27007 -0.55662,-27.81117 -0.55662,-32.31349 l 0,-8.18619 27.31442,-23.24321 c 15.02295,-12.78379 27.66521,-23.24327 28.09397,-23.24327 0.42904,0 5.66709,4.2615 11.64077,9.4699 5.97362,5.20846 16.33339,14.20484 23.0217,19.99202 6.68839,5.78717 13.79419,12.03732 15.79074,13.88919 l 3.63013,3.36707 0.75332,31.52938 c 0.41408,17.34122 0.56731,31.83014 0.34067,32.19768 -0.22735,0.36775 -10.42876,0.66851 -22.6702,0.66851 -20.50452,0 -24.22558,-0.36775 -21.39938,-2.11429 0.4718,-0.29149 1.83933,-2.49201 3.03901,-4.88981 1.19969,-2.39787 2.99176,-5.26392 3.98241,-6.36903 l 1.80113,-2.00923 -2.10445,0.46183 c -1.15742,0.25372 -2.9567,0.6628 -3.99838,0.90876 -1.04168,0.24588 -1.89399,0.31786 -1.89399,0.16035 0,-0.15822 1.1364,-2.4474 2.5253,-5.0878 2.60969,-4.96102 3.1301,-8.82184 1.69722,-12.59059 -0.45542,-1.1979 -3.62414,-6.43103 -7.04145,-11.62908 -6.43787,-9.79261 -8.12404,-13.45032 -8.12404,-17.62316 0,-3.52208 -1.42989,-2.14294 -2.89569,2.79313 -1.10504,3.72099 -1.10953,5.05659 -0.0356,11.1173 2.08272,11.77341 1.29896,17.41034 -2.42075,17.41034 -1.01181,0 -1.38028,-0.77334 -1.38028,-2.89654 0,-3.61074 -1.31778,-4.61429 -1.94452,-1.48077 -0.25657,1.28121 -1.95208,4.21069 -3.76853,6.50999 -7.93781,10.04761 -8.37634,15.53574 -1.81054,22.65879 1.81047,1.96413 3.04436,3.81842 2.74203,4.12075 -0.30218,0.30218 -10.27425,0.54949 -22.15983,0.54949 l -21.6102,0 -0.55662,-24.12731 z m 40.09736,20.95196 c -2.2792,-1.78645 -5.25593,-8.2003 -5.28094,-11.37865 -0.0214,-2.9428 2.37356,-7.68637 7.18833,-14.22673 2.72422,-3.70061 3.73611,-5.86478 3.73611,-7.99048 0,-4.00422 2.38632,-3.49086 4.62975,0.99607 l 1.68354,3.36707 0.28151,-2.47213 c 0.15466,-1.35962 -0.35706,-6.01931 -1.13775,-10.35486 -0.83763,-4.65185 -1.18293,-9.14277 -0.84262,-10.95701 1.1989,-6.39062 6.95008,-14.23172 8.96246,-12.21934 0.67635,0.67635 0.55875,1.45497 -0.4319,2.86982 -2.91251,4.15816 -1.09078,9.97284 6.53316,20.85296 2.47833,3.5369 5.3148,8.01592 6.30324,9.95339 2.23879,4.38843 2.36316,10.91881 0.28935,15.20483 l -1.50749,3.11591 4.16757,0 c 4.95495,0 5.84219,1.31586 2.02113,2.9974 -2.01921,0.88866 -3.47917,2.61353 -5.47843,6.4725 l -2.72557,5.26106 19.77144,0 19.77137,0 -0.002,-14.09958 c -8.6e-4,-7.75479 -0.24945,-21.73271 -0.55163,-31.06199 l -0.54949,-16.96242 -23.22817,-20.2213 c -12.77517,-11.12171 -24.3642,-21.19691 -25.75318,-22.38925 -2.65266,-2.27735 -4.20178,-2.70162 -5.02145,-1.37536 -0.27012,0.43688 -11.37231,9.99558 -24.67146,21.24124 -13.29915,11.24558 -24.90058,21.10247 -25.78105,21.90411 -1.51056,1.37551 -1.56971,2.4427 -1.04973,18.9532 0.3029,9.62263 0.58441,23.46172 0.62575,30.75354 l 0.0748,13.25781 19.9147,-0.0214 c 19.02532,-0.0142 19.83181,-0.0834 18.05911,-1.47307 z m 5.60116,1.8617 c -0.59937,-0.72253 -1.25598,-3.31212 -1.45853,-5.75467 -0.46753,-5.63986 0.83421,-8.22753 7.95292,-15.80714 5.73301,-6.10418 7.85806,-9.9268 7.85806,-14.13528 0,-3.78165 1.94139,-3.18883 4.95952,1.51448 3.04586,4.74664 4.07848,10.44287 2.66784,14.71713 -0.5445,1.65047 -3.42016,5.71056 -6.3899,9.02247 -3.53007,3.93687 -5.58584,7.01451 -5.93749,8.88919 -0.5224,2.78579 -0.65211,2.86747 -4.55007,2.86747 -2.60862,0 -4.39343,-0.45969 -5.10235,-1.31365 z m 7.62145,-1.84296 c 0.004,-2.03853 2.48518,-5.71947 7.42809,-11.02158 6.42511,-6.89186 7.25398,-13.04985 2.68031,-19.91342 l -1.68275,-2.5253 -0.006,2.15007 c -0.007,2.81002 -3.5957,8.38432 -9.50675,14.76773 -6.39981,6.91125 -7.78365,10.89352 -5.51549,15.87157 0.76294,1.67448 1.59245,2.144 3.78791,2.144 2.11486,0 2.81188,-0.3649 2.81423,-1.47307 z"
       id="path4147"
       inkscape:connector-curvature="0"
       sodipodi:nodetypes="cccsssscsscccscccscssssccccscccscssssscccsccscccsccssccsscsssscccccsssccscscssccsccccccscsccscccccccccssccscsccssccssscc" />
    <path
       style="color:#000000;clip-rule:nonzero;display:inline;overflow:visible;visibility:visible;opacity:1;isolation:auto;mix-blend-mode:normal;color-interpolation:sRGB;color-interpolation-filters:linearRGB;solid-color:#000000;solid-opacity:1;fill:#ffffff;fill-opacity:1;fill-rule:nonzero;stroke:#ffffff;stroke-width:0.8646906;stroke-linecap:butt;stroke-linejoin:miter;stroke-miterlimit:4;stroke-dasharray:none;stroke-dashoffset:0;stroke-opacity:1;color-rendering:auto;image-rendering:auto;shape-rendering:auto;text-rendering:auto;enable-background:accumulate"
       d="m 315.03939,587.52101 c -1.14108,-0.96016 -1.74462,-2.07995 -2.04498,-3.79417 -0.67274,-3.83959 -1.1282,-15.65479 -1.53328,-39.77476 -0.13879,-8.26431 -0.3227,-18.09688 -0.40868,-21.85015 l -0.15634,-6.82413 10.82069,-9.22916 c 28.16415,-24.02171 47.12587,-39.74086 50.21931,-41.63151 0.53201,-0.32516 0.69458,-0.31161 1.51491,0.12627 1.43902,0.76812 4.26071,3.07946 11.88027,9.73153 3.88317,3.39009 16.06587,13.98715 27.07267,23.54901 l 20.01236,17.3852 5e-4,2.06024 c 2.1e-4,1.13313 0.18303,9.39015 0.40626,18.34894 0.22324,8.95879 0.42194,22.87996 0.44156,30.93592 0.0318,13.05998 -0.0115,14.84937 -0.39989,16.51272 -0.49993,2.14116 -0.84767,2.76003 -2.07822,3.69861 -0.71987,0.54908 -1.31472,0.72051 -3.22505,0.92946 -1.47614,0.16146 -22.57033,0.29847 -57.04072,0.37048 l -54.69834,0.11428 -0.78291,-0.65878 -1.2e-4,0 z m 38.83757,-4.92048 c 4.23632,-0.12227 7.90128,-0.30036 8.14435,-0.39576 0.24596,-0.0966 0.44194,-0.43611 0.44194,-0.76574 l 0,-0.59226 0.63344,0.58705 c 0.94466,0.87548 2.71224,1.26968 5.72438,1.27664 3.20928,0.007 3.91628,-0.3366 4.44503,-2.16285 0.61888,-2.1375 0.80493,-2.58986 1.6274,-3.9567 0.4554,-0.75683 1.59378,-2.30191 2.52972,-3.43352 6.73297,-8.14051 8.02516,-10.01484 8.69062,-12.60577 0.54501,-2.12197 0.34496,-6.20616 -0.42343,-8.64459 -1.08463,-3.44197 -3.64098,-7.74911 -5.39179,-9.08452 -0.9385,-0.71583 -2.20347,-0.83728 -2.68445,-0.25773 -0.17367,0.20925 -0.42003,1.42002 -0.54747,2.6906 -0.4751,4.73653 -1.8752,7.15604 -8.13786,14.06303 -6.34109,6.99347 -7.71861,9.50684 -7.72528,14.09528 -0.003,1.84349 0.42693,4.90213 0.88103,6.27254 0.12707,0.38347 0.0397,0.34329 -0.36303,-0.16694 -0.29171,-0.3696 -1.36635,-1.64776 -2.38808,-2.84035 -3.19712,-3.73176 -4.46974,-6.9472 -3.95722,-9.99843 0.562,-3.34578 1.90783,-5.85822 6.29034,-11.74302 1.84785,-2.48128 3.82711,-6.09865 3.82711,-6.99457 0,-0.25042 0.0969,-0.4553 0.21528,-0.4553 0.11841,0 0.29136,0.9897 0.38434,2.19933 0.23595,3.06964 0.87552,3.86228 2.82178,3.49716 1.17409,-0.22026 2.30154,-1.43407 2.75717,-2.96836 0.89914,-3.02771 0.74351,-7.27932 -0.54355,-14.84997 -0.94486,-5.55774 -0.91278,-8.23777 0.13603,-11.36421 0.44265,-1.31951 0.95533,-2.66729 1.13929,-2.99507 0.30772,-0.54829 0.34711,-0.44634 0.4926,1.27485 0.36598,4.3295 1.66785,6.95085 9.5711,19.27162 5.83149,9.091 6.41409,10.40932 6.18787,14.00193 -0.16634,2.64174 -0.67661,4.1307 -2.96013,8.63767 -0.97157,1.91758 -1.76649,3.71997 -1.76649,4.00531 0,0.8286 0.69169,0.88702 3.52632,0.29782 3.27114,-0.67994 3.24291,-0.68011 2.61473,0.0157 -0.87784,0.97236 -2.47164,3.49177 -3.87413,6.12405 -1.60723,3.01657 -2.67049,4.63459 -3.45554,5.2585 -0.31854,0.25316 -0.57915,0.6767 -0.57915,0.94121 0,1.40454 2.44311,1.69505 16.02802,1.90588 11.17235,0.17339 28.61041,-0.21769 29.43721,-0.66018 0.26991,-0.14445 0.56957,-0.57187 0.66591,-0.94983 0.191,-0.74932 -0.23365,-27.27614 -0.79326,-49.55332 l -0.35209,-14.01586 -2.22671,-2.11779 c -2.74721,-2.61283 -10.33337,-9.28802 -26.59664,-23.40283 -22.77153,-19.76329 -24.95632,-21.57775 -25.98185,-21.57775 -0.61785,0 -13.4292,10.63887 -38.54165,32.00596 l -17.17259,14.61141 0.0306,14.1301 c 0.0168,7.77155 0.15846,19.47127 0.31476,25.99938 0.15629,6.52811 0.35884,14.96604 0.45011,18.75096 l 0.16594,6.88166 14.29279,-0.01 c 7.86103,-0.006 17.75887,-0.1101 21.9952,-0.23237 z"
       id="path4164"
       inkscape:connector-curvature="0" />
  </g>
</svg>
