<?xml version="1.0" encoding="UTF-8" standalone="no"?>
<!-- Created with Inkscape (http://www.inkscape.org/) -->

<svg
   xmlns:dc="http://purl.org/dc/elements/1.1/"
   xmlns:cc="http://creativecommons.org/ns#"
   xmlns:rdf="http://www.w3.org/1999/02/22-rdf-syntax-ns#"
   xmlns:svg="http://www.w3.org/2000/svg"
   xmlns="http://www.w3.org/2000/svg"
   xmlns:sodipodi="http://sodipodi.sourceforge.net/DTD/sodipodi-0.dtd"
   xmlns:inkscape="http://www.inkscape.org/namespaces/inkscape"
   width="118.54631mm"
   height="40.449013mm"
   viewBox="0 0 420.04598 143.32328"
   id="svg2"
   version="1.1"
   inkscape:version="0.91 r13725"
   sodipodi:docname="logo.svg">
  <defs
     id="defs4" />
  <sodipodi:namedview
     id="base"
     pagecolor="#ffffff"
     bordercolor="#666666"
     borderopacity="1.0"
     inkscape:pageopacity="0.0"
     inkscape:pageshadow="2"
     inkscape:zoom="0.98994949"
     inkscape:cx="265.09245"
     inkscape:cy="-96.418713"
     inkscape:document-units="px"
     inkscape:current-layer="layer1"
     showgrid="false"
     inkscape:window-width="1920"
     inkscape:window-height="1005"
     inkscape:window-x="0"
     inkscape:window-y="0"
     inkscape:window-maximized="1"
     fit-margin-top="1"
     fit-margin-left="1"
     fit-margin-right="1"
     fit-margin-bottom="1" />
  <metadata
     id="metadata7">
    <rdf:RDF>
      <cc:Work
         rdf:about="">
        <dc:format>image/svg+xml</dc:format>
        <dc:type
           rdf:resource="http://purl.org/dc/dcmitype/StillImage" />
        <dc:title></dc:title>
      </cc:Work>
    </rdf:RDF>
  </metadata>
  <g
     inkscape:label="Layer 1"
     inkscape:groupmode="layer"
     id="layer1"
     transform="translate(-304.40345,-457.74499)">
    <path
       style="fill:#40b4ba;fill-opacity:1;stroke:#40b4ba;stroke-opacity:1"
       d="m 372.56055,461.79297 c -2.98279,0.13128 -6.36956,2.98435 -13.45703,9.04883 -5.80999,4.97136 -17.54034,14.90985 -26.06641,22.08593 -8.52607,7.17608 -17.5444,14.96472 -20.04297,17.30665 l -4.54297,4.25781 0.72461,35.58398 0.72461,35.58594 c 0.78924,3.41731 3.0669,4.6258 5.49805,4.91016 l 56.84765,0 c 60.91968,0 60.38626,0.0356 62.63282,-4.16211 0.94989,-1.77462 1.03999,-42.22172 0.13671,-61.45899 l -0.5332,-11.32812 -7.99609,-7.06836 c -4.3982,-3.8872 -14.25262,-12.45756 -21.89844,-19.04688 -7.64582,-6.58924 -14.46459,-12.5169 -15.15234,-13.17187 -0.68775,-0.65482 -4.13356,-3.74621 -7.65821,-6.8711 -4.26773,-3.78369 -6.58492,-5.78771 -9.21679,-5.67187 z m -0.0879,1.67187 c 0.80777,0 3.93758,2.17778 6.95507,4.83985 3.01756,2.66214 16.29385,14.22296 29.50391,25.6914 l 24.01758,20.85157 0.55469,24.60351 c 1.02935,45.67023 0.99839,46.12259 -3.38477,48.45703 -1.34493,0.71633 -16.89563,0.98047 -57.91016,0.98047 l -56.07031,0 c -1.54128,-0.4676 -2.3033,-1.521 -3.01172,-2.61328 -1.13626,-1.7727 -1.69805,-6.15317 -2.34375,-45.09375 l -0.43554,-26.24219 7.77343,-6.63867 c 35.47637,-30.29471 53.10534,-44.83594 54.35157,-44.83594 z m 0.11328,0.72852 c -0.20969,-0.0175 -0.38439,0.062 -0.65039,0.22461 -3.09344,1.89065 -22.0546,17.60915 -50.21875,41.63086 l -10.82032,9.22851 0.15625,6.82422 c 0.086,3.75327 0.26942,13.5853 0.40821,21.84961 0.40508,24.11997 0.86046,35.9358 1.5332,39.77539 0.30036,1.71422 0.90384,2.83476 2.04492,3.79492 l 0.78321,0.65821 54.69921,-0.11328 c 34.47039,-0.072 55.56293,-0.20964 57.03907,-0.3711 1.91033,-0.20895 2.50669,-0.3806 3.22656,-0.92969 1.23055,-0.93858 1.57819,-1.55805 2.07812,-3.69921 0.38839,-1.66335 0.43024,-3.45174 0.39844,-16.51172 -0.0196,-8.05596 -0.21816,-21.97676 -0.4414,-30.93555 -0.22323,-8.95879 -0.40604,-17.21648 -0.40625,-18.34961 l 0,-2.06055 -20.01172,-17.38476 c -11.0068,-9.56186 -23.1891,-20.15874 -27.07227,-23.54883 -7.61956,-6.65207 -10.44184,-8.9643 -11.88086,-9.73242 -0.41016,-0.21894 -0.65555,-0.33213 -0.86523,-0.34961 z m -0.24414,6.26953 c 1.02553,0 3.21089,1.81484 25.98242,21.57813 16.26327,14.11481 23.84849,20.78951 26.5957,23.40234 l 2.22656,2.11914 0.35352,14.01562 c 0.55961,22.27719 0.98397,48.80342 0.79297,49.55274 -0.0963,0.37796 -0.39611,0.80477 -0.66602,0.94922 -0.8268,0.44249 -18.26515,0.83354 -29.4375,0.66015 -13.58491,-0.21083 -16.02734,-0.49975 -16.02734,-1.90429 0,-0.26451 0.25958,-0.68825 0.57812,-0.94141 0.78505,-0.62391 1.84785,-2.24319 3.45508,-5.25976 1.40249,-2.63228 2.99716,-5.15069 3.875,-6.12305 0.62818,-0.69581 0.65591,-0.69557 -2.61523,-0.0156 -2.83463,0.5892 -3.52539,0.52978 -3.52539,-0.29882 0,-0.28534 0.79405,-2.08633 1.76562,-4.00391 2.28352,-4.50697 2.7946,-5.99693 2.96094,-8.63867 0.22622,-3.59261 -0.35796,-4.91096 -6.18945,-14.00196 -7.90325,-12.32077 -9.20434,-14.94198 -9.57032,-19.27148 -0.14549,-1.72119 -0.18446,-1.82368 -0.49218,-1.27539 -0.18396,0.32778 -0.69602,1.67658 -1.13868,2.99609 -1.04881,3.12644 -1.08157,5.80554 -0.13671,11.36328 1.28706,7.57065 1.4421,11.8219 0.54297,14.84961 -0.45563,1.53429 -1.58177,2.74849 -2.75586,2.96875 -1.94626,0.36512 -2.58632,-0.42645 -2.82227,-3.49609 -0.093,-1.20963 -0.26636,-2.19922 -0.38477,-2.19922 -0.11838,0 -0.21484,0.20466 -0.21484,0.45508 0,0.89592 -1.98027,4.51286 -3.82812,6.99414 -4.38251,5.8848 -5.72707,8.39641 -6.28907,11.74219 -0.51252,3.05123 0.75991,6.26824 3.95703,10 1.02173,1.19259 2.09501,2.47024 2.38672,2.83984 0.40273,0.51023 0.49035,0.54949 0.36328,0.16602 -0.4541,-1.37041 -0.88385,-4.428 -0.88086,-6.27149 0.007,-4.58844 1.38548,-7.10223 7.72657,-14.0957 6.26266,-6.90699 7.66162,-9.32597 8.13672,-14.0625 0.12744,-1.27058 0.3732,-2.48216 0.54687,-2.69141 0.48098,-0.57955 1.74705,-0.45801 2.68555,0.25782 1.75081,1.33541 4.30599,5.64201 5.39062,9.08398 0.76839,2.43843 0.96884,6.52256 0.42383,8.64453 -0.66546,2.59093 -1.95648,4.46691 -8.68945,12.60742 -0.93594,1.13161 -2.07585,2.67677 -2.53125,3.4336 -0.82247,1.36684 -1.00808,1.81757 -1.62696,3.95508 -0.52874,1.82625 -1.23603,2.17106 -4.44531,2.16406 -3.01214,-0.007 -4.77799,-0.40187 -5.72265,-1.27735 l -0.63477,-0.58593 0,0.59179 c 0,0.32963 -0.19545,0.66903 -0.44141,0.76563 -0.24307,0.0954 -3.90821,0.27226 -8.14453,0.39453 -4.23633,0.12227 -14.13506,0.22642 -21.99609,0.23242 l -14.29102,0.0117 -0.16601,-6.88281 c -0.0913,-3.78492 -0.29488,-12.22189 -0.45117,-18.75 -0.1563,-6.52811 -0.29766,-18.22845 -0.31446,-26 l -0.0312,-14.13086 17.17383,-14.61133 c 25.11245,-21.36709 37.92317,-32.00586 38.54102,-32.00586 z m 0.12304,0.57813 c -0.42876,0 -13.0708,10.45839 -28.09375,23.24218 l -27.31445,23.24414 0,8.18555 c 0,4.50232 0.25089,19.04243 0.55664,32.3125 l 0.002,0.002 0.55665,24.12696 21.60937,0 c 11.88558,0 21.85798,-0.24665 22.16016,-0.54883 0.30233,-0.30233 -0.93172,-2.15697 -2.74219,-4.12109 -6.5658,-7.12305 -6.12726,-12.6106 1.81055,-22.65821 1.81645,-2.2993 3.511,-5.23051 3.76757,-6.51172 0.62674,-3.13352 1.94532,-2.12831 1.94532,1.48243 0,2.12319 0.36905,2.89648 1.38086,2.89648 3.71971,0 4.50264,-5.6387 2.41992,-17.41211 -1.07393,-6.06071 -1.06989,-7.3962 0.0351,-11.11719 1.4658,-4.93607 2.89649,-6.31505 2.89649,-2.79297 0,4.17284 1.68713,7.83044 8.125,17.62305 3.41731,5.19805 6.58559,10.43296 7.04101,11.63086 1.43288,3.76875 0.91243,7.62882 -1.69726,12.58984 -1.3889,2.6404 -2.52539,4.92967 -2.52539,5.08789 0,0.15751 0.85285,0.0857 1.89453,-0.16015 1.04168,-0.24596 2.84063,-0.65644 3.99805,-0.91016 l 2.10351,-0.46094 -1.80078,2.00977 c -0.99065,1.10511 -2.78273,3.97127 -3.98242,6.36914 -1.19968,2.3978 -2.56726,4.59718 -3.03906,4.88867 -2.8262,1.74654 0.89587,2.11524 21.40039,2.11524 12.24144,0 22.44257,-0.30217 22.66992,-0.66992 0.22664,-0.36754 0.0723,-14.85605 -0.3418,-32.19727 l -0.75195,-31.5293 -3.63086,-3.36719 c -1.99655,-1.85187 -9.10263,-8.1015 -15.79102,-13.88867 -6.68831,-5.78718 -17.04786,-14.78372 -23.02148,-19.99218 -5.97368,-5.2084 -11.21159,-9.46875 -11.64063,-9.46875 z m -0.67578,2.57031 c 0.8871,6.6e-4 2.11357,0.70165 3.77149,2.125 1.38898,1.19234 12.97678,11.26696 25.75195,22.38867 l 23.22852,20.2207 0.54882,16.96289 c 0.30218,9.32928 0.55188,23.30771 0.55274,31.0625 l 0.002,14.09961 -19.77148,0 -19.77149,0 2.72656,-5.26172 c 1.99927,-3.85897 3.45736,-5.58399 5.47657,-6.47265 3.82106,-1.68154 2.93542,-2.99805 -2.01953,-2.99805 l -4.16797,0 1.50781,-3.11523 c 2.07381,-4.28602 1.94973,-10.81665 -0.28906,-15.20508 -0.98844,-1.93747 -3.82636,-6.41623 -6.30469,-9.95313 -7.62394,-10.88012 -9.44571,-16.69535 -6.5332,-20.85351 0.99065,-1.41485 1.10799,-2.19279 0.43164,-2.86914 -2.01238,-2.01238 -7.76204,5.82813 -8.96094,12.21875 -0.34031,1.81424 0.004,6.30518 0.8418,10.95703 0.78069,4.33555 1.29333,8.99585 1.13867,10.35547 l -0.2832,2.47265 -1.68164,-3.36718 c -2.24343,-4.48693 -4.63086,-5.00032 -4.63086,-0.9961 0,2.1257 -1.01211,4.28963 -3.73633,7.99024 -4.81477,6.54036 -7.2089,11.28376 -7.1875,14.22656 0.025,3.17835 3.00205,9.59246 5.28125,11.37891 l 0,-0.004 c 1.7727,1.38967 0.96672,1.46041 -18.0586,1.47461 l -19.91601,0.0215 -0.0742,-13.25781 c -0.0413,-7.29182 -0.3221,-21.13128 -0.625,-30.75391 -0.51998,-16.5105 -0.46173,-17.57761 1.04883,-18.95312 0.88047,-0.80164 12.4821,-10.65872 25.78125,-21.9043 13.29915,-11.24566 24.40175,-20.80531 24.67187,-21.24218 0.30738,-0.49735 0.71774,-0.74845 1.25,-0.74805 z m 6.91797,69.05859 c -0.67078,0.002 -1.04297,0.81819 -1.04297,2.47266 0,4.20848 -2.12441,8.03058 -7.85742,14.13476 -7.11871,7.57961 -8.42065,10.16874 -7.95312,15.8086 0.20255,2.44255 0.85766,5.03137 1.45703,5.7539 0.70892,0.85396 2.49489,1.31446 5.10351,1.31446 3.89796,0 4.02643,-0.0833 4.54883,-2.86914 0.35165,-1.87468 2.40743,-4.95181 5.9375,-8.88868 2.96974,-3.31191 5.84613,-7.37101 6.39063,-9.02148 1.41064,-4.27426 0.37789,-9.97016 -2.66797,-14.7168 -1.6977,-2.64561 -3.05358,-3.99082 -3.91602,-3.98828 z m 0.65235,2.86719 1.68164,2.52539 c 4.57367,6.86357 3.74542,13.02025 -2.67969,19.91211 -4.94291,5.30211 -7.42374,8.98295 -7.42774,11.02148 l -0.002,0 c -0.002,1.10817 -0.69959,1.47461 -2.81445,1.47461 -2.19546,0 -3.02417,-0.47005 -3.78711,-2.14453 -2.26816,-4.97805 -0.88419,-8.95984 5.51562,-15.87109 5.91105,-6.38341 9.49886,-11.95756 9.50586,-14.76758 l 0.008,-2.15039 z"
       id="path4147"
       inkscape:connector-curvature="0" />
    <text
       xml:space="preserve"
       style="font-style:normal;font-weight:normal;font-size:43.13137054px;line-height:80.00000119%;font-family:sans-serif;text-align:start;letter-spacing:0px;word-spacing:0px;writing-mode:lr-tb;text-anchor:start;fill:#000000;fill-opacity:1;stroke:none;stroke-width:1px;stroke-linecap:butt;stroke-linejoin:miter;stroke-opacity:1"
       x="451.75626"
       y="554.04822"
       id="text4205"
       sodipodi:linespacing="80.000001%"><tspan
         sodipodi:role="line"
         id="tspan4207"
         x="451.75626"
         y="554.04822"
         style="line-height:80.00000119%;text-align:start;writing-mode:lr-tb;text-anchor:start;fill:#40b4ba;fill-opacity:1">Brandschutz </tspan><tspan
         sodipodi:role="line"
         x="451.75626"
         y="588.55334"
         style="line-height:80.00000119%;text-align:start;writing-mode:lr-tb;text-anchor:start;fill:#40b4ba;fill-opacity:1"
         id="tspan4209">und Rettung</tspan></text>
  </g>
</svg>
